<?xml version="1.0" standalone="no"?>
<!DOCTYPE svg PUBLIC "-//W3C//DTD SVG 20010904//EN"
 "http://www.w3.org/TR/2001/REC-SVG-20010904/DTD/svg10.dtd">
<svg version="1.0" xmlns="http://www.w3.org/2000/svg"
 width="700.000000pt" height="700.000000pt" viewBox="0 0 700.000000 700.000000"
 preserveAspectRatio="xMidYMid meet">
<metadata>
Created by potrace 1.14, written by Peter Selinger 2001-2017
</metadata>
<g transform="translate(0.000000,700.000000) scale(0.100000,-0.100000)"
fill="#000000" stroke="none">
<path d="M3225 6988 c-33 -3 -89 -9 -125 -13 -539 -54 -1110 -271 -1590 -603
-641 -444 -1122 -1100 -1350 -1844 -22 -71 -42 -139 -44 -151 -2 -12 -11 -49
-19 -82 -9 -33 -23 -100 -33 -150 -9 -49 -18 -101 -21 -115 -7 -37 -11 -67
-18 -145 -3 -38 -8 -86 -11 -105 -6 -43 -5 -479 1 -570 10 -166 32 -299 81
-510 71 -299 140 -485 304 -811 134 -266 285 -482 510 -730 67 -74 269 -271
343 -334 124 -106 321 -249 442 -320 80 -47 387 -205 399 -205 2 0 37 -15 78
-34 149 -68 491 -173 658 -201 14 -2 52 -9 85 -14 33 -6 83 -13 110 -17 28 -3
61 -7 75 -9 123 -18 466 -25 650 -12 217 14 569 78 755 137 491 157 876 366
1245 679 112 95 391 381 483 496 87 108 226 311 282 410 45 80 135 246 135
250 0 2 17 41 39 87 66 142 171 434 186 517 3 16 9 41 14 53 16 41 64 295 77
403 3 28 8 61 10 75 17 100 24 484 11 640 -27 313 -77 564 -172 846 -145 436
-390 862 -695 1209 -94 107 -322 324 -436 415 -274 219 -604 408 -936 536
-110 43 -325 112 -403 130 -5 1 -40 9 -78 18 -37 9 -79 18 -95 20 -15 3 -68
12 -118 20 -133 23 -145 24 -314 32 -220 9 -445 10 -515 2z m565 -293 c77 -5
204 -21 255 -31 11 -2 31 -6 45 -9 14 -3 36 -7 50 -10 14 -3 37 -7 52 -10 78
-15 353 -101 475 -149 254 -101 465 -215 689 -373 127 -88 172 -123 227 -173
l39 -35 -21 -26 c-11 -14 -53 -43 -93 -64 -95 -49 -128 -80 -128 -119 0 -41
11 -55 46 -64 22 -6 36 -21 58 -64 l28 -56 59 25 c33 14 62 24 65 21 7 -8 26
-130 20 -135 -2 -3 -58 -5 -124 -6 -131 -2 -133 -3 -178 -70 -55 -80 -83 -105
-127 -112 -123 -19 -113 -14 -121 -62 -4 -21 -9 -50 -12 -66 -5 -24 -2 -29 26
-39 30 -10 32 -13 27 -50 -3 -22 -8 -42 -11 -45 -3 -3 -34 0 -69 6 -119 21
-227 5 -254 -36 -22 -34 -15 -200 10 -231 28 -34 72 -45 182 -46 123 0 146 8
170 57 8 17 47 75 85 127 l70 95 65 0 c61 0 66 2 104 39 l40 39 21 -35 c20
-34 115 -112 193 -158 73 -43 67 -75 -14 -86 -24 -4 -46 -8 -48 -10 -12 -11
39 -45 76 -50 60 -8 90 14 99 74 3 26 11 52 16 59 14 18 6 26 -74 74 -97 57
-108 69 -138 152 l-10 27 62 0 c51 0 69 -5 107 -30 59 -37 131 -114 132 -140
1 -11 2 -23 3 -27 1 -5 5 -25 9 -45 7 -35 97 -148 117 -148 4 0 17 35 29 78
15 58 28 84 51 105 39 35 60 35 61 0 3 -89 18 -130 63 -172 23 -22 37 -25 108
-27 44 -2 84 -6 89 -11 4 -4 26 -62 48 -128 37 -109 39 -120 23 -127 -9 -4
-70 -7 -135 -7 l-117 -1 -74 51 c-67 47 -79 52 -137 55 -74 3 -109 -13 -109
-50 0 -56 -32 -73 -78 -40 -12 8 -37 20 -55 25 -39 12 -202 55 -239 63 -27 6
-27 7 -30 99 -2 66 -6 91 -15 90 -7 -2 -52 -5 -100 -8 -176 -11 -231 -20 -302
-52 -47 -20 -74 -25 -166 -27 -109 -2 -111 -3 -192 -46 l-83 -44 0 -92 0 -93
-112 -80 c-62 -44 -139 -101 -170 -126 -53 -41 -57 -48 -54 -78 7 -51 16 -67
45 -74 14 -3 29 -10 32 -16 9 -13 -7 -66 -25 -86 -22 -24 -29 -64 -31 -180 -2
-109 3 -129 39 -167 26 -27 48 -52 165 -186 51 -59 100 -109 109 -111 36 -9
81 -7 118 7 21 7 78 14 126 15 112 3 133 7 169 33 22 16 43 22 91 22 55 0 69
-4 110 -32 38 -26 64 -35 130 -43 46 -6 89 -16 96 -22 10 -8 12 -27 7 -71 -3
-34 -8 -83 -11 -111 -3 -27 -7 -56 -9 -63 -3 -8 47 -103 110 -213 l115 -199
-56 -110 c-57 -112 -72 -175 -52 -215 6 -11 27 -40 46 -64 l35 -43 2 -123 1
-122 54 -73 c60 -83 68 -110 69 -223 0 -44 3 -82 5 -85 3 -3 27 -6 52 -8 26
-2 49 -5 50 -7 5 -4 -298 -311 -367 -372 -80 -71 -94 -83 -189 -155 -85 -65
-285 -200 -295 -200 -3 0 -24 -11 -46 -25 -125 -80 -424 -211 -621 -274 -107
-34 -312 -86 -375 -96 -21 -3 -50 -8 -63 -11 -14 -2 -90 -13 -170 -24 -118
-15 -193 -18 -400 -15 -140 2 -271 6 -290 9 -19 3 -52 8 -73 11 -580 76 -1146
319 -1617 693 -102 82 -332 306 -422 412 -86 101 -288 378 -288 395 0 2 -21
39 -46 82 -170 287 -319 685 -378 1013 -22 120 -31 183 -42 280 -11 90 -13
530 -4 595 5 33 11 78 14 100 22 172 96 495 154 670 64 194 79 210 78 86 l-1
-69 67 -32 c38 -17 68 -35 69 -38 0 -4 2 -62 3 -129 3 -110 5 -127 29 -173 49
-94 98 -160 123 -165 13 -3 35 -7 48 -10 18 -4 26 0 31 14 7 23 -25 112 -63
171 -44 70 -65 139 -66 225 -1 25 3 30 26 33 22 3 28 -2 37 -30 5 -18 13 -51
17 -73 8 -53 51 -136 124 -245 33 -49 60 -93 60 -98 0 -5 -7 -23 -15 -40 -20
-39 -14 -61 43 -146 l47 -70 110 -28 c124 -31 170 -35 178 -14 4 10 15 13 34
10 56 -10 63 -15 63 -43 0 -16 6 -33 13 -39 7 -6 55 -21 107 -33 102 -24 94
-19 209 -148 85 -97 94 -102 196 -106 47 -2 94 -7 105 -10 22 -7 35 -49 44
-142 l6 -62 -77 -52 c-43 -29 -79 -52 -80 -53 0 -1 -4 -30 -8 -66 -4 -36 -9
-78 -11 -95 -3 -16 -6 -56 -9 -88 -4 -56 -3 -59 47 -125 147 -191 170 -223
183 -256 9 -20 15 -38 15 -41 0 -15 27 -45 41 -45 22 0 116 -50 187 -100 48
-33 62 -49 63 -69 0 -14 1 -139 1 -277 l1 -252 31 -13 c38 -17 39 -35 14 -164
-9 -49 -17 -93 -17 -96 -1 -3 24 -39 54 -79 l56 -74 -6 -104 c-4 -58 -8 -113
-10 -124 -5 -24 18 -71 91 -188 54 -88 88 -127 188 -218 l58 -53 82 4 c44 3
89 8 99 12 33 14 19 48 -43 106 -67 63 -64 46 -45 200 l7 57 -38 7 c-22 3 -52
17 -68 31 l-29 25 30 32 c38 40 56 74 49 92 -3 8 -21 21 -41 29 -23 10 -35 22
-35 35 0 23 10 30 47 37 71 13 210 71 254 106 9 7 37 45 64 83 26 39 86 118
132 178 l84 107 -16 78 c-19 96 -21 120 -11 154 13 45 47 68 107 73 119 10
138 16 193 57 35 26 56 49 57 62 0 12 2 35 4 51 6 55 15 149 21 225 8 89 10
94 85 187 47 56 62 84 73 132 l14 60 -51 16 c-66 19 -76 28 -121 98 l-37 57
-77 1 c-146 1 -200 8 -277 34 -157 54 -148 47 -160 145 -7 57 -36 137 -66 180
-16 24 -22 25 -105 24 -49 0 -95 1 -101 4 -7 2 -28 29 -47 61 -44 72 -92 124
-134 146 -33 16 -34 16 -56 -8 -18 -19 -33 -24 -81 -26 -33 -1 -68 -4 -77 -7
-17 -5 -26 2 -86 70 -27 29 -71 44 -157 52 l-60 6 -55 -63 c-30 -35 -66 -75
-80 -90 l-25 -28 -108 19 c-143 26 -147 28 -148 93 0 48 -5 104 -14 167 -2 14
-4 32 -4 41 -1 13 -21 19 -91 29 -49 7 -90 14 -90 15 0 2 13 31 29 66 16 35
30 73 31 84 7 68 -11 71 -95 14 -109 -74 -165 -97 -222 -95 -55 3 -95 23 -114
57 -37 69 -30 127 27 244 41 83 67 111 144 153 126 67 118 65 224 62 56 -1
137 -3 181 -4 l80 -1 6 -52 c8 -65 11 -68 70 -98 44 -23 49 -24 51 -8 0 10 2
27 3 38 1 11 3 49 4 84 1 62 2 64 47 108 26 24 86 71 133 102 100 68 105 73
119 124 6 21 25 57 43 80 48 62 169 166 247 212 37 22 96 71 132 108 36 38 79
77 97 88 30 19 34 19 63 4 29 -15 31 -15 57 11 l26 26 -48 17 c-52 18 -60 28
-51 66 13 52 125 46 142 -8 5 -17 13 -19 64 -14 33 3 75 15 99 28 36 21 43 22
51 9 13 -21 12 -36 -3 -52 -28 -28 -37 -54 -24 -72 26 -36 205 -84 208 -56 1
6 2 16 3 23 4 25 -16 47 -74 78 -33 17 -60 37 -60 44 0 6 22 24 49 38 51 28
61 42 61 83 0 39 -17 62 -74 98 l-52 34 1 76 c1 42 -2 81 -6 87 -4 7 -25 2
-62 -15 -63 -28 -92 -37 -136 -40 -28 -2 -30 0 -26 23 16 100 16 109 -2 115
-71 21 -145 39 -186 43 -43 5 -50 2 -76 -26 -30 -32 -37 -64 -44 -205 l-2 -49
-75 -24 c-86 -27 -93 -32 -134 -109 -31 -56 -61 -79 -85 -65 -8 5 -12 35 -13
85 0 78 -5 89 -43 92 -134 10 -203 55 -220 144 -5 29 -2 39 17 56 45 40 298
173 354 187 29 6 38 -2 50 -43 9 -30 14 -35 39 -33 15 1 37 11 49 22 12 11 33
24 49 30 32 12 35 26 7 41 -28 15 -14 38 29 45 21 3 62 24 90 45 59 45 96 57
197 64 69 5 72 5 109 -27 22 -19 35 -38 31 -45 -3 -6 -52 -34 -107 -63 -54
-29 -96 -56 -91 -61 4 -4 68 -23 141 -42 l132 -33 14 21 c8 11 17 33 20 49 8
30 22 35 100 39 44 3 52 7 72 37 29 43 29 49 -4 56 -51 11 -58 19 -61 78 l-3
55 -117 50 c-64 27 -132 55 -150 62 -45 18 -182 7 -252 -19 -70 -27 -123 -59
-115 -71 3 -5 8 -36 11 -68 l6 -59 -48 7 c-62 10 -84 19 -85 34 0 6 -2 22 -5
35 -3 18 8 35 46 74 61 61 57 65 -66 66 -101 1 -138 -11 -155 -51 -13 -32 -3
-48 32 -48 20 0 31 -37 19 -60 -6 -12 -28 -20 -66 -25 -42 -5 -63 -13 -80 -32
-21 -22 -33 -26 -91 -28 -90 -2 -119 8 -127 45 -6 34 1 59 18 61 6 1 31 3 56
4 25 1 50 3 56 4 22 2 114 93 114 111 0 10 -9 22 -20 25 -21 7 -34 0 -81 -43
-20 -18 -41 -24 -85 -27 l-58 -4 -60 60 c-33 32 -64 59 -70 60 -62 6 -132 3
-159 -6 -25 -9 -177 -110 -177 -118 0 -1 27 -3 61 -5 103 -5 126 -23 93 -70
-8 -12 -12 -23 -7 -23 10 -2 100 -7 135 -8 27 -1 68 -44 54 -58 -3 -4 -46 -7
-95 -7 -88 0 -90 1 -119 32 -17 18 -37 32 -46 32 -9 0 -56 13 -106 30 -50 16
-93 29 -98 29 -4 -1 -29 -1 -57 0 -63 1 -60 4 110 111 159 100 428 233 594
295 256 94 570 166 841 191 36 4 67 8 69 10 5 5 399 -4 501 -11z m-1993 -746
c9 -9 9 -19 -2 -39 -16 -30 -65 -48 -125 -44 -48 3 -47 2 -54 19 -8 22 3 45
23 45 9 1 27 7 41 15 30 17 102 19 117 4z m3 -194 c0 -27 -17 -34 -85 -36 -69
-2 -85 1 -85 15 0 18 73 44 128 45 38 1 42 -1 42 -24z m4075 -97 c10 -13 40
-48 67 -79 l49 -57 -28 -47 -28 -47 -108 4 c-80 3 -111 8 -118 19 -10 16 -3
22 74 69 35 22 47 36 48 55 1 14 3 34 4 45 1 11 3 29 4 40 1 26 12 25 36 -2z
m-3831 -224 c42 -16 0 -106 -56 -120 -24 -5 -29 -1 -48 36 -12 23 -19 48 -16
56 10 26 81 43 120 28z m286 -254 c12 -17 20 -40 18 -53 -3 -20 -9 -22 -84
-25 -176 -6 -222 61 -67 97 77 18 110 14 133 -19z m-1564 -43 c-14 -23 -37
-55 -51 -72 l-26 -30 22 45 c35 71 72 126 77 112 2 -7 -8 -31 -22 -55z m1656
6 c24 -22 23 -33 -5 -33 -17 0 -23 6 -25 25 -2 29 5 31 30 8z m137 -72 c12 -8
13 -12 2 -25 -11 -12 -17 -14 -27 -5 -31 25 -9 51 25 30z m-309 -13 c0 -11
-26 -49 -87 -125 -28 -35 -38 -41 -52 -33 -28 15 -32 37 -15 80 22 54 68 90
117 90 21 0 37 -5 37 -12z m198 -5 c6 -20 -53 -73 -82 -73 -23 0 -26 4 -26 38
0 21 3 42 7 46 12 11 96 2 101 -11z m88 -64 c78 -20 85 -79 9 -79 -48 0 -64
13 -70 59 -4 35 -2 36 61 20z m-121 -49 c4 -6 3 -24 0 -41 -8 -34 -51 -59
-103 -59 -38 0 -42 6 -31 40 7 20 24 34 57 49 53 23 68 25 77 11z m3986 -65
c28 -60 25 -75 -15 -75 -43 0 -46 13 -37 135 l2 20 15 -20 c9 -11 25 -38 35
-60z"/>
<path d="M5023 5620 c-24 -10 -43 -39 -43 -66 0 -10 27 -43 60 -74 57 -53 76
-90 47 -90 -27 0 -48 -27 -61 -78 l-14 -53 76 6 c130 9 149 14 178 48 l26 31
-23 19 c-13 11 -31 24 -40 31 -32 22 -80 101 -95 155 -9 31 -21 62 -26 69 -12
14 -53 15 -85 2z"/>
<path d="M4895 5481 c-29 -12 -51 -40 -75 -94 -39 -88 8 -106 109 -42 82 51
101 83 76 121 -12 18 -24 24 -53 23 -20 0 -46 -4 -57 -8z"/>
<path d="M3225 5080 c-16 -11 -44 -20 -62 -20 -40 0 -49 -14 -29 -45 10 -15
23 -22 38 -21 42 5 67 17 72 34 3 9 20 25 37 34 16 10 27 22 24 28 -10 16 -48
11 -80 -10z"/>
<path d="M3002 5025 c-14 -30 7 -56 38 -48 34 9 20 73 -15 73 -7 0 -17 -11
-23 -25z"/>
</g>
</svg>
